"Virtual Death" (aka "Time Bomb" or "Memories Of The Past"): Sengoku is sent to save 50,000 people trapped in Oedo's largest skyscraper after its central computer is mysteriously taken over. Along the way, he finds that the only suspect is a dead man.

Video
Format                           : MPEG-4 Visual
Codec                            : DivX
Duration                         : 42mn 31s
Bit rate                         : 1 279 Kbps
Width                            : 720 pixels
Height                           : 528 pixels
Display aspect ratio             : 4:3
Frame rate                       : 25.000 fps
Resolution                       : 8 bits
Bits/(Pixel*Frame)               : 0.135
Stream size                      : 389 MiB (90%)

Audio
Format                           : MPEG Audio
Format version                   : Version 1
Format profile                   : Layer 3
Format_Settings_Mode             : Joint stereo
Format_Settings_ModeExtension    : MS Stereo
Codec ID                         : MP3
Duration                         : 42mn 30s
Bit rate mode                    : Constant
Bit rate                         : 128 Kbps
Channel(s)                       : 2 channels
Sampling rate                    : 48.0 KHz
Stream size                      : 38.9 MiB (9%)
Alignment                        : Split accross interleaves
Interleave, duration             : 24 ms (0.60 video frame)